name Walk6.mot
datacolumns 19
datarows 12
range 2.56000000 2.61500000
endheader

                time	   L_ground_force_vx	   L_ground_force_vy	   L_ground_force_vz	   L_ground_force_px	   L_ground_force_py	   L_ground_force_pz	   R_ground_force_vx	   R_ground_force_vy	   R_ground_force_vz	   R_ground_force_px	   R_ground_force_py	   R_ground_force_pz	   L_ground_torque_x	   L_ground_torque_y	   L_ground_torque_z	   R_ground_torque_x	   R_ground_torque_y	   R_ground_torque_z	
          2.56000000	          0.00000000	          0.00000000	         -0.00000000	         -0.00000000	          0.00000000	         -0.00000000	         27.38298748	        121.10833360	          3.08586812	          0.23401568	          0.00000000	          0.10529116	          0.00000000	          0.00000000	          0.00000000	          0.00000000	         -7.36555728	          0.00000000	
          2.56500000	          0.00000000	         -0.00000000	         -0.00000000	         -0.00000000	          0.00000000	         -0.00000000	         21.46575687	         92.45385175	          2.82957986	          0.22046343	          0.00000000	          0.09866790	          0.00000000	          0.00000000	          0.00000000	          0.00000000	         -6.12554622	          0.00000000	
          2.57000000	         -0.00000000	         -0.00000000	         -0.00000000	         -0.00000000	          0.00000000	         -0.00000000	         16.06012685	         67.65147512	          2.44627648	          0.20263674	          0.00000000	          0.09018798	          0.00000000	          0.00000000	          0.00000000	          0.00000000	         -4.91897118	          0.00000000	
          2.57500000	         -0.00000000	         -0.00000000	         -0.00000000	         -0.00000000	          0.00000000	         -0.00000000	         11.33546862	         46.83932696	          2.00018852	          0.18048956	          0.00000000	          0.07987387	          0.00000000	          0.00000000	          0.00000000	          0.00000000	         -3.79065200	          0.00000000	
          2.58000000	         -0.00000000	         -0.00000000	         -0.00000000	         -0.00000000	          0.00000000	         -0.00000000	          7.40250500	         29.95496361	          1.54954966	          0.15457074	          0.00000000	          0.06801435	          0.00000000	         -0.00000000	          0.00000000	          0.00000000	         -2.77917738	          0.00000000	
          2.58500000	         -0.00000000	         -0.00000000	         -0.00000000	          0.00000000	          0.00000000	          0.00000000	          4.29226545	         16.78828847	          1.13631702	          0.12635309	          0.00000000	          0.05528903	          0.00000000	         -0.00000000	          0.00000000	          0.00000000	         -1.91274886	          0.00000000	
          2.59000000	         -0.00000000	         -0.00000000	         -0.00000000	          0.00000000	          0.00000000	          0.00000000	          1.95816446	          7.01782496	          0.78139549	          0.09828927	          0.00000000	          0.04276584	          0.00000000	         -0.00000000	          0.00000000	          0.00000000	         -1.20590308	          0.00000000	
          2.59500000	         -0.00000000	         -0.00000000	         -0.00000000	          0.00000000	          0.00000000	          0.00000000	          0.30648359	          0.19719089	          0.49199225	          0.07251899	          0.00000000	          0.03135270	          0.00000000	         -0.00000000	          0.00000000	          0.00000000	         -0.65724422	          0.00000000	
          2.60000000	         -0.00000000	         -0.00000000	         -0.00000000	          0.00000000	          0.00000000	          0.00000000	         -0.77694651	         -4.19234503	          0.26749292	          0.05025763	          0.00000000	          0.02155406	          0.00000000	         -0.00000000	          0.00000000	          0.00000000	         -0.25341985	          0.00000000	
          2.60500000	         -0.00000000	         -0.00000000	         -0.00000000	          0.00000000	          0.00000000	          0.00000000	         -1.41028216	         -6.67570558	          0.10237039	          0.03200708	          0.00000000	          0.01356571	          0.00000000	         -0.00000000	          0.00000000	          0.00000000	          0.02558734	          0.00000000	
          2.61000000	         -0.00000000	         -0.00000000	          0.00000000	          0.00000000	          0.00000000	          0.00000000	         -1.70489179	         -7.74026900	         -0.01161575	          0.01777199	          0.00000000	          0.00737006	          0.00000000	         -0.00000000	          0.00000000	          0.00000000	          0.20248560	          0.00000000	
          2.61500000	         -0.00000000	         -0.00000000	          0.00000000	          0.00000000	          0.00000000	          0.00000000	         -1.75898290	         -7.81079121	         -0.08379418	          0.00723775	          0.00000000	          0.00281402	          0.00000000	         -0.00000000	          0.00000000	          0.00000000	          0.29991286	          0.00000000	
